<svg xmlns="http://www.w3.org/2000/svg" viewBox="0 0 1200 900" preserveAspectRatio="xMidYMid slice">
  <defs>
    <radialGradient id="bg" cx="0.45" cy="0.45" r="0.85">
      <stop offset="0" stop-color="#26302f"/>
      <stop offset="0.6" stop-color="#181c1c"/>
      <stop offset="1" stop-color="#101111"/>
    </radialGradient>
    <filter id="glow" x="-10%" y="-10%" width="120%" height="120%">
      <feGaussianBlur stdDeviation="4"/>
    </filter>
    <linearGradient id="chip" x1="0" y1="0" x2="1" y2="1">
      <stop offset="0" stop-color="#3a3a3d"/>
      <stop offset="1" stop-color="#151516"/>
    </linearGradient>
    <linearGradient id="probe" x1="0" y1="0" x2="1" y2="0">
      <stop offset="0" stop-color="#2a2a2c"/>
      <stop offset="0.5" stop-color="#5c5d61"/>
      <stop offset="1" stop-color="#1e1e20"/>
    </linearGradient>
    <radialGradient id="vig" cx="0.5" cy="0.5" r="0.75">
      <stop offset="0.6" stop-color="#000" stop-opacity="0"/>
      <stop offset="1" stop-color="#000" stop-opacity="0.6"/>
    </radialGradient>
  </defs>
  <rect width="1200" height="900" fill="url(#bg)"/>
  <g fill="none" stroke="#63C6C1" stroke-width="3" stroke-linecap="round" stroke-linejoin="round" opacity="0.55">
    <path d="M0 180 H260 L320 240 H520"/>
    <path d="M0 220 H240 L300 280 H520"/>
    <path d="M0 620 H180 L260 540 H420"/>
    <path d="M0 660 H200 L280 580 H420"/>
    <path d="M780 300 H900 L960 240 H1200"/>
    <path d="M780 340 H920 L980 280 H1200"/>
    <path d="M780 560 H1000 L1060 620 H1200"/>
    <path d="M600 520 V720 L660 780 H1200"/>
    <path d="M560 520 V760 L500 820 H0"/>
    <path d="M650 120 V0"/>
    <path d="M690 120 V40 L730 0"/>
  </g>
  <g fill="none" stroke="#63C6C1" stroke-width="3" opacity="0.7" filter="url(#glow)">
    <path d="M0 620 H180 L260 540 H420"/>
    <path d="M780 300 H900 L960 240 H1200"/>
  </g>
  <g fill="#63C6C1" opacity="0.8">
    <circle cx="520" cy="240" r="8"/><circle cx="520" cy="280" r="8"/>
    <circle cx="420" cy="540" r="8"/><circle cx="420" cy="580" r="8"/>
    <circle cx="780" cy="300" r="8"/><circle cx="780" cy="340" r="8"/><circle cx="780" cy="560" r="8"/>
  </g>
  <rect x="520" y="120" width="260" height="400" rx="10" fill="url(#chip)" stroke="#55565a" stroke-width="2"/>
  <g fill="#8a8b8f">
    <rect x="540" y="104" width="10" height="16"/><rect x="570" y="104" width="10" height="16"/><rect x="600" y="104" width="10" height="16"/>
    <rect x="630" y="104" width="10" height="16"/><rect x="660" y="104" width="10" height="16"/><rect x="690" y="104" width="10" height="16"/>
    <rect x="720" y="104" width="10" height="16"/><rect x="750" y="104" width="10" height="16"/>
    <rect x="540" y="520" width="10" height="16"/><rect x="570" y="520" width="10" height="16"/><rect x="600" y="520" width="10" height="16"/>
    <rect x="630" y="520" width="10" height="16"/><rect x="660" y="520" width="10" height="16"/><rect x="690" y="520" width="10" height="16"/>
    <rect x="720" y="520" width="10" height="16"/><rect x="750" y="520" width="10" height="16"/>
  </g>
  <circle cx="555" cy="155" r="8" fill="#0e0e0f"/>
  <rect x="140" y="330" width="160" height="110" rx="8" fill="url(#chip)" stroke="#4a4b4e" stroke-width="2"/>
  <rect x="880" y="400" width="180" height="90" rx="8" fill="url(#chip)" stroke="#4a4b4e" stroke-width="2"/>
  <rect x="340" y="700" width="70" height="36" rx="6" fill="#2d2d2f" stroke="#4a4b4e"/>
  <rect x="860" y="660" width="36" height="70" rx="6" fill="#2d2d2f" stroke="#4a4b4e"/>
  <path d="M1250 -40 L870 460" stroke="url(#probe)" stroke-width="46" stroke-linecap="round"/>
  <path d="M880 447 L850 488" stroke="#d8d8db" stroke-width="8" stroke-linecap="round"/>
  <circle cx="846" cy="492" r="18" fill="#63C6C1" opacity="0.35" filter="url(#glow)"/>
  <rect width="1200" height="900" fill="url(#vig)"/>
</svg>
